<?xml version="1.0" encoding="iso-8859-1"?>
<!-- Generator: Adobe Illustrator 18.1.1, SVG Export Plug-In . SVG Version: 6.00 Build 0)  -->
<svg version="1.1" id="Capa_1" xmlns="http://www.w3.org/2000/svg" xmlns:xlink="http://www.w3.org/1999/xlink" x="0px" y="0px"
	 viewBox="0 0 254 254" style="enable-background:new 0 0 254 254;" xml:space="preserve">
<g>
	<path style="fill:#030104;" d="M254,228.566c-4.549-8.541-13.682-13.521-21.001-19.777l0.776-2.461
		c3.533,1.615,7.195,3.271,11.298,3.717c0.22-0.146,0.438-0.293,0.653-0.434c0.231-0.663,0.451-1.316,0.652-1.963l-10.162-9.089
		l0.476-1.51l-2.785-0.553l-3.862-3.454c-5.518-3.476-11.029-6.965-16.558-10.449c-1.812-2.246-3.622-4.502-5.433-6.75
		c-4.811-5.513-9.598-11.039-14.389-16.559c-1.885-3.334-3.775-6.677-5.659-10.028c-4.951-6.589-9.882-13.201-14.82-19.812
		c-4.87-5.443-9.726-10.889-14.597-16.343c-5.83-7.72-11.533-15.515-17.428-23.084c-1.818-2.323-3.629-4.651-5.439-6.975
		c-5.086-4.186-10.164-7.599-15.7-11.554c-2.031-2.181-4.054-4.34-6.09-6.524c-3.566-2.251-7.12-4.506-10.681-6.754
		c-0.072-0.141-0.146-0.292-0.219-0.438c0.505,0.144,1.008,0.298,1.525,0.438c0-0.079,0-0.141,0-0.226
		c-1.102-0.51-1.761-1.433-2.396-2.39c0.8,0.5,1.592,1.008,2.396,1.524c-2.475-3.791-4.949-7.552-7.413-11.333
		c-6.067-10.151-10.715-21.874-22.655-26.132c-11.275-4.032-24.234,0.485-35.073-0.882c0,0.079,0,0.141,0,0.22
		c0.193,0.118,0.385,0.254,0.575,0.386c-1.284-0.13-2.561-0.267-3.845-0.386c0.222,0.218,0.441,0.438,0.659,0.663
		c0.154,0,0.287,0,0.435,0c-2.963,1.507-9.022,0.462-11.975,0c0.584,0.276,1.159,0.563,1.743,0.861
		c-3.567,0.22-7.115,0.438-10.676,0.653C10.826,22.057,1.917,24.076,0,28.576c4.269-1.332,9.729,2.74,13.279,4.135
		c13.587,5.327,22.969,4.752,25.703,21.57c1.063,6.536-3.832,9.083-6.322,12.2c-3.441,4.313-5.382,8.601-6.749,15.248
		c-2.341,11.407,4.853,24.167,8.059,31.586c5.771,13.369,11.496,26.981,19.612,38.122c1.523,1.237,3.048,2.471,4.579,3.701
		c6.551,5.235,13.194,10.758,20.033,15.686c0-0.721,0-1.456,0-2.176c0.079,0,0.146,0,0.219,0c1.335,3.122,3.799,5.584,5.946,8.311
		c-19.94,4.026-41.552,6.658-65.578,7.283c-2.536,11.965-1.828,23.55,5.601,34.352c42.771-2.495,84.653,3.657,125.765,17.471
		c8.791-5.992,12.807-14.204,12.454-24.455c14.208,1.138,27.947,3.259,41.021,6.777c4.894,3.652,10.027,6.53,19.013,7.562
		c-0.499-0.354-1.011-0.731-1.524-1.091c-0.071-0.135-0.14-0.297-0.218-0.438c1.066,0.291,2.101,0.598,3.11,0.877
		c1.123,0.471,2.24,0.951,3.352,1.448l0.189-0.601c2.545,0.457,5.044,0.458,7.729-0.639c-0.074-0.652-0.152-1.304-0.225-1.963
		C238.365,224.943,252.031,231.115,254,228.566z M63.818,30.53c-1.446,3.229-5.574,2.07-7.627,0.433
		c-0.332-1.13-0.612-2.228,0-3.272c0.625-1.323,1.568-1.514,2.83-2.184l0,0c2.621-0.006,3.386,0.688,4.797,1.75
		C64.139,28.387,64.437,29.477,63.818,30.53z"/>
</g>
<g>
</g>
<g>
</g>
<g>
</g>
<g>
</g>
<g>
</g>
<g>
</g>
<g>
</g>
<g>
</g>
<g>
</g>
<g>
</g>
<g>
</g>
<g>
</g>
<g>
</g>
<g>
</g>
<g>
</g>
</svg>
