<svg id="Capa_1" enable-background="new 0 0 512 512" height="512" viewBox="0 0 512 512" width="512" xmlns="http://www.w3.org/2000/svg"><g><path d="m512 77.5v434.5h-512v-383.67l20-71.33h472z" fill="#f0f9ff"/><path d="m512 77.5v434.5h-256v-455h236z" fill="#bce4f4"/><path d="m512 0v77.5h-218l-38 50.83h-256v-128.33z" fill="#393d9d"/><path d="m48.75 47.5h30v30h-30z" fill="#fe4945"/><path d="m110.292 47.5h30v30h-30z" fill="#f0f9ff"/><path d="m171.833 47.5h30v30h-30z" fill="#f0f9ff"/><path d="m512 0v77.5h-218l-38 50.83v-128.33z" fill="#350d65"/><path d="m303.333 210h30v50.667h-30z" fill="#350d65"/><path d="m366 416v-143.15l-110-71.4-110 71.4v143.15z" fill="#14cffe"/><path d="m366 416v-143.15l-110-71.4v214.55z" fill="#28aaf9"/><path d="m211.33 313h89.34v103h-89.34z" fill="#393d9d"/><path d="m256 313h44.67v103h-44.67z" fill="#350d65"/><path d="m116 405h280v30h-280z" fill="#5862be"/><path d="m256 405h140v30h-140z" fill="#393d9d"/></g></svg>